HIERARCHY
ROOT CC_Base_BoneRoot
{
	OFFSET 0.000000 0.000000 0.000000
	CHANNELS 6 Xposition Yposition Zposition Xrotation Yrotation Zrotation
	JOINT CC_Base_Hip
	{
		OFFSET 0.000000 0.000000 105.214241
		CHANNELS 3 Xrotation Yrotation Zrotation
		JOINT CC_Base_Pelvis
		{
			OFFSET -0.000000 -0.000001 -0.000069
			CHANNELS 3 Xrotation Yrotation Zrotation
			JOINT CC_Base_L_Thigh
			{
				OFFSET 9.679232 0.301105 -2.207489
				CHANNELS 3 Xrotation Yrotation Zrotation
				JOINT CC_Base_L_Calf
				{
					OFFSET -0.939750 -0.172164 -40.658329
					CHANNELS 3 Xrotation Yrotation Zrotation
					JOINT CC_Base_L_Foot
					{
						OFFSET -0.952431 0.632389 -42.310875
						CHANNELS 3 Xrotation Yrotation Zrotation
						JOINT CC_Base_L_ToeBaseShareBone
						{
							OFFSET 1.566516 -13.132577 -2.423887
							CHANNELS 3 Xrotation Yrotation Zrotation
							End Site
							{
								OFFSET 0.820910 -13.277843 1.311294
							}
						}
						JOINT CC_Base_L_ToeBase
						{
							OFFSET 1.556535 -12.970218 -2.440896
							CHANNELS 3 Xrotation Yrotation Zrotation
							JOINT CC_Base_L_PinkyToe1
							{
								OFFSET 3.000326 -0.095164 -0.265234
								CHANNELS 3 Xrotation Yrotation Zrotation
								End Site
								{
									OFFSET 0.071889 -2.740657 -1.237427
								}
							}
							JOINT CC_Base_L_RingToe1
							{
								OFFSET 1.613520 -1.258591 0.234524
								CHANNELS 3 Xrotation Yrotation Zrotation
								End Site
								{
									OFFSET 0.209102 -2.660546 -1.387572
								}
							}
							JOINT CC_Base_L_MidToe1
							{
								OFFSET 0.190605 -2.362959 0.359053
								CHANNELS 3 Xrotation Yrotation Zrotation
								End Site
								{
									OFFSET 0.263171 -2.823983 -1.001724
								}
							}
							JOINT CC_Base_L_IndexToe1
							{
								OFFSET -1.455172 -2.683045 0.570290
								CHANNELS 3 Xrotation Yrotation Zrotation
								End Site
								{
									OFFSET 0.326793 -2.793737 -1.065754
								}
							}
							JOINT CC_Base_L_BigToe1
							{
								OFFSET -3.660310 -2.552900 0.092412
								CHANNELS 3 Xrotation Yrotation Zrotation
								End Site
								{
									OFFSET 0.310800 -2.991206 -0.060640
								}
							}
						}
					}
					JOINT CC_Base_L_CalfTwist01
					{
						OFFSET -0.000006 0.000004 -0.000038
						CHANNELS 3 Xrotation Yrotation Zrotation
						JOINT CC_Base_L_CalfTwist02
						{
							OFFSET -0.475341 0.310379 -24.892138
							CHANNELS 3 Xrotation Yrotation Zrotation
							End Site
							{
								OFFSET -0.633384 0.481544 -24.885893
							}
						}
					}
					JOINT CC_Base_L_KneeShareBone
					{
						OFFSET -0.000010 0.000005 -0.000038
						CHANNELS 3 Xrotation Yrotation Zrotation
						End Site
						{
							OFFSET -0.422251 0.318261 -16.599602
						}
					}
				}
				JOINT CC_Base_L_ThighTwist01
				{
					OFFSET -0.000006 0.000002 -0.000031
					CHANNELS 3 Xrotation Yrotation Zrotation
					JOINT CC_Base_L_ThighTwist02
					{
						OFFSET -0.465212 -0.080397 -23.828621
						CHANNELS 3 Xrotation Yrotation Zrotation
						End Site
						{
							OFFSET -0.577665 -0.248224 -23.825005
						}
					}
				}
			}
			JOINT CC_Base_R_Thigh
			{
				OFFSET -9.679712 0.301104 -2.207550
				CHANNELS 3 Xrotation Yrotation Zrotation
				JOINT CC_Base_R_ThighTwist01
				{
					OFFSET 0.000007 -0.000003 -0.000008
					CHANNELS 3 Xrotation Yrotation Zrotation
					JOINT CC_Base_R_ThighTwist02
					{
						OFFSET 0.464272 -0.089817 -23.829117
						CHANNELS 3 Xrotation Yrotation Zrotation
						End Site
						{
							OFFSET 0.584725 -0.252406 -23.825294
						}
					}
				}
				JOINT CC_Base_R_Calf
				{
					OFFSET 0.937987 -0.190387 -40.658482
					CHANNELS 3 Xrotation Yrotation Zrotation
					JOINT CC_Base_R_Foot
					{
						OFFSET 0.950368 0.643215 -42.311081
						CHANNELS 3 Xrotation Yrotation Zrotation
						JOINT CC_Base_R_ToeBase
						{
							OFFSET -1.559783 -13.132576 -2.424223
							CHANNELS 3 Xrotation Yrotation Zrotation
							JOINT CC_Base_R_PinkyToe1
							{
								OFFSET -2.990087 -0.102175 -0.270662
								CHANNELS 3 Xrotation Yrotation Zrotation
								End Site
								{
									OFFSET -0.079772 -2.736538 -1.234487
								}
							}
							JOINT CC_Base_R_BigToe1
							{
								OFFSET 3.670992 -2.549512 0.084144
								CHANNELS 3 Xrotation Yrotation Zrotation
								End Site
								{
									OFFSET -0.319780 -2.985505 -0.058824
								}
							}
							JOINT CC_Base_R_IndexToe1
							{
								OFFSET 1.462413 -2.674656 0.556736
								CHANNELS 3 Xrotation Yrotation Zrotation
								End Site
								{
									OFFSET -0.334732 -2.788952 -1.062384
								}
							}
							JOINT CC_Base_R_MidToe1
							{
								OFFSET -0.182861 -2.360682 0.344119
								CHANNELS 3 Xrotation Yrotation Zrotation
								End Site
								{
									OFFSET -0.271526 -2.819080 -0.999012
								}
							}
							JOINT CC_Base_R_RingToe1
							{
								OFFSET -1.607688 -1.252522 0.222115
								CHANNELS 3 Xrotation Yrotation Zrotation
								End Site
								{
									OFFSET -0.216478 -2.655741 -1.385331
								}
							}
						}
						JOINT CC_Base_R_ToeBaseShareBone
						{
							OFFSET -1.559776 -13.132500 -2.424137
							CHANNELS 3 Xrotation Yrotation Zrotation
							End Site
							{
								OFFSET -0.869085 -13.350641 1.333500
							}
						}
					}
					JOINT CC_Base_R_KneeShareBone
					{
						OFFSET -0.000003 -0.000001 -0.000011
						CHANNELS 3 Xrotation Yrotation Zrotation
						End Site
						{
							OFFSET 0.423583 0.316123 -16.599697
						}
					}
					JOINT CC_Base_R_CalfTwist01
					{
						OFFSET -0.000003 -0.000001 -0.000011
						CHANNELS 3 Xrotation Yrotation Zrotation
						JOINT CC_Base_R_CalfTwist02
						{
							OFFSET 0.474322 0.315302 -24.892122
							CHANNELS 3 Xrotation Yrotation Zrotation
							End Site
							{
								OFFSET 0.638875 0.494206 -24.885532
							}
						}
					}
				}
			}
		}
		JOINT CC_Base_Waist
		{
			OFFSET 0.000123 -1.391190 7.892227
			CHANNELS 3 Xrotation Yrotation Zrotation
			JOINT CC_Base_Spine01
			{
				OFFSET -0.000665 -2.896428 8.000412
				CHANNELS 3 Xrotation Yrotation Zrotation
				JOINT CC_Base_Spine02
				{
					OFFSET -0.000151 3.172371 14.481407
					CHANNELS 3 Xrotation Yrotation Zrotation
					JOINT CC_Base_NeckTwist01
					{
						OFFSET 0.001830 5.037313 26.915466
						CHANNELS 3 Xrotation Yrotation Zrotation
						JOINT CC_Base_NeckTwist02
						{
							OFFSET -0.000429 -0.994779 3.682953
							CHANNELS 3 Xrotation Yrotation Zrotation
							JOINT CC_Base_Head
							{
								OFFSET -0.000365 -1.056073 3.987289
								CHANNELS 3 Xrotation Yrotation Zrotation
								JOINT CC_Base_FacialBone
								{
									OFFSET -0.000076 -0.000019 -0.000015
									CHANNELS 3 Xrotation Yrotation Zrotation
									JOINT CC_Base_JawRoot
									{
										OFFSET 0.000166 -2.577461 1.589859
										CHANNELS 3 Xrotation Yrotation Zrotation
										JOINT CC_Base_Tongue01
										{
											OFFSET -0.000266 -3.515649 -0.902802
											CHANNELS 3 Xrotation Yrotation Zrotation
											JOINT CC_Base_Tongue02
											{
												OFFSET -0.000103 -1.192833 -0.092529
												CHANNELS 3 Xrotation Yrotation Zrotation
												JOINT CC_Base_Tongue03
												{
													OFFSET -0.000133 -1.588274 -0.455170
													CHANNELS 3 Xrotation Yrotation Zrotation
													End Site
													{
														OFFSET -0.000195 0.578345 -1.547684
													}
												}
											}
										}
										JOINT CC_Base_Teeth02
										{
											OFFSET -0.000445 -3.518791 -0.882431
											CHANNELS 3 Xrotation Yrotation Zrotation
											End Site
											{
												OFFSET -0.000062 0.000900 3.628738
											}
										}
									}
									JOINT CC_Base_R_Eye
									{
										OFFSET -3.320127 -8.218504 8.193512
										CHANNELS 3 Xrotation Yrotation Zrotation
										End Site
										{
											OFFSET 0.002065 8.681551 -0.000092
										}
									}
									JOINT CC_Base_L_Eye
									{
										OFFSET 3.318957 -8.219094 8.193741
										CHANNELS 3 Xrotation Yrotation Zrotation
										End Site
										{
											OFFSET 0.002065 8.681551 0.000015
										}
									}
									JOINT CC_Base_UpperJaw
									{
										OFFSET -0.000138 -6.915838 3.044510
										CHANNELS 3 Xrotation Yrotation Zrotation
										JOINT CC_Base_Teeth01
										{
											OFFSET -0.000113 -0.066461 0.210709
											CHANNELS 3 Xrotation Yrotation Zrotation
											End Site
											{
												OFFSET 0.000006 0.000046 0.220947
											}
										}
									}
								}
							}
						}
					}
					JOINT CC_Base_L_Clavicle
					{
						OFFSET 5.625835 3.736514 20.628326
						CHANNELS 3 Xrotation Yrotation Zrotation
						JOINT CC_Base_L_Upperarm
						{
							OFFSET 12.748119 2.616885 -0.026810
							CHANNELS 3 Xrotation Yrotation Zrotation
							JOINT CC_Base_L_Forearm
							{
								OFFSET 30.707462 0.007299 -0.258804
								CHANNELS 3 Xrotation Yrotation Zrotation
								JOINT CC_Base_L_ForearmTwist01
								{
									OFFSET -0.000061 0.000038 0.000046
									CHANNELS 3 Xrotation Yrotation Zrotation
									JOINT CC_Base_L_ForearmTwist02
									{
										OFFSET 12.849483 -0.003518 0.057983
										CHANNELS 3 Xrotation Yrotation Zrotation
										End Site
										{
											OFFSET 12.845856 -0.146425 -0.274261
										}
									}
								}
								JOINT CC_Base_L_ElbowShareBone
								{
									OFFSET -0.000008 -0.000001 -0.000031
									CHANNELS 3 Xrotation Yrotation Zrotation
									End Site
									{
										OFFSET 8.567738 -0.043919 -0.182861
									}
								}
								JOINT CC_Base_L_Hand
								{
									OFFSET 31.208935 0.000525 0.133942
									CHANNELS 3 Xrotation Yrotation Zrotation
									JOINT CC_Base_L_Mid1
									{
										OFFSET 11.379295 -1.876784 -0.235855
										CHANNELS 3 Xrotation Yrotation Zrotation
										JOINT CC_Base_L_Mid2
										{
											OFFSET 4.206909 -0.123435 0.033875
											CHANNELS 3 Xrotation Yrotation Zrotation
											JOINT CC_Base_L_Mid3
											{
												OFFSET 2.707268 -0.095429 0.031494
												CHANNELS 3 Xrotation Yrotation Zrotation
												End Site
												{
													OFFSET 2.699577 -0.042444 -0.223358
												}
											}
										}
									}
									JOINT CC_Base_L_Index1
									{
										OFFSET 11.270035 -4.733048 0.074539
										CHANNELS 3 Xrotation Yrotation Zrotation
										JOINT CC_Base_L_Index2
										{
											OFFSET 3.081078 -0.105606 0.039658
											CHANNELS 3 Xrotation Yrotation Zrotation
											JOINT CC_Base_L_Index3
											{
												OFFSET 2.603844 -0.079981 0.040771
												CHANNELS 3 Xrotation Yrotation Zrotation
												End Site
												{
													OFFSET 2.590714 -0.033555 -0.274155
												}
											}
										}
									}
									JOINT CC_Base_L_Ring1
									{
										OFFSET 11.200226 0.468256 -1.122910
										CHANNELS 3 Xrotation Yrotation Zrotation
										JOINT CC_Base_L_Ring2
										{
											OFFSET 3.548828 -0.120251 0.012604
											CHANNELS 3 Xrotation Yrotation Zrotation
											JOINT CC_Base_L_Ring3
											{
												OFFSET 2.486275 -0.090200 0.002686
												CHANNELS 3 Xrotation Yrotation Zrotation
												End Site
												{
													OFFSET 2.478577 0.023370 -0.214066
												}
											}
										}
									}
									JOINT CC_Base_L_Pinky1
									{
										OFFSET 10.416008 2.486697 -2.113419
										CHANNELS 3 Xrotation Yrotation Zrotation
										JOINT CC_Base_L_Pinky2
										{
											OFFSET 2.772491 -0.086895 -0.000244
											CHANNELS 3 Xrotation Yrotation Zrotation
											JOINT CC_Base_L_Pinky3
											{
												OFFSET 2.170418 -0.104033 -0.002472
												CHANNELS 3 Xrotation Yrotation Zrotation
												End Site
												{
													OFFSET 2.151093 -0.017404 -0.306686
												}
											}
										}
									}
									JOINT CC_Base_L_Thumb1
									{
										OFFSET 5.097328 -5.012833 -1.319916
										CHANNELS 3 Xrotation Yrotation Zrotation
										JOINT CC_Base_L_Thumb2
										{
											OFFSET 2.023773 -1.980936 0.020203
											CHANNELS 3 Xrotation Yrotation Zrotation
											JOINT CC_Base_L_Thumb3
											{
												OFFSET 3.367142 -1.516251 -0.003632
												CHANNELS 3 Xrotation Yrotation Zrotation
												End Site
												{
													OFFSET 3.222420 -1.803511 0.004181
												}
											}
										}
									}
								}
							}
							JOINT CC_Base_L_UpperarmTwist01
							{
								OFFSET -1.000006 -3.000000 2.000092
								CHANNELS 3 Xrotation Yrotation Zrotation
								JOINT CC_Base_L_UpperarmTwist02
								{
									OFFSET 12.626181 0.017348 -0.086411
									CHANNELS 3 Xrotation Yrotation Zrotation
									End Site
									{
										OFFSET 12.614151 -0.116489 -0.545715
									}
								}
							}
						}
					}
					JOINT CC_Base_R_Clavicle
					{
						OFFSET -5.621921 3.738149 20.628403
						CHANNELS 3 Xrotation Yrotation Zrotation
						JOINT CC_Base_R_Upperarm
						{
							OFFSET -12.747458 2.620382 -0.027130
							CHANNELS 3 Xrotation Yrotation Zrotation
							JOINT CC_Base_R_UpperarmTwist01
							{
								OFFSET 1.000004 -3.000002 0.500061
								CHANNELS 3 Xrotation Yrotation Zrotation
								JOINT CC_Base_R_UpperarmTwist02
								{
									OFFSET -12.626461 0.032800 -0.087509
									CHANNELS 3 Xrotation Yrotation Zrotation
									End Site
									{
										OFFSET -12.614147 -0.143803 -0.546738
									}
								}
							}
							JOINT CC_Base_R_Forearm
							{
								OFFSET -30.707649 0.030312 -0.259460
								CHANNELS 3 Xrotation Yrotation Zrotation
								JOINT CC_Base_R_ForearmTwist01
								{
									OFFSET -0.000069 -0.000037 -0.000259
									CHANNELS 3 Xrotation Yrotation Zrotation
									JOINT CC_Base_R_ForearmTwist02
									{
										OFFSET -12.849583 0.005212 0.057632
										CHANNELS 3 Xrotation Yrotation Zrotation
										End Site
										{
											OFFSET -12.845531 -0.178712 -0.274628
										}
									}
								}
								JOINT CC_Base_R_ElbowShareBone
								{
									OFFSET 0.000011 0.000005 -0.000198
									CHANNELS 3 Xrotation Yrotation Zrotation
									End Site
									{
										OFFSET -8.567799 -0.064058 -0.182922
									}
								}
								JOINT CC_Base_R_Hand
								{
									OFFSET -31.209145 0.019975 0.132889
									CHANNELS 3 Xrotation Yrotation Zrotation
									JOINT CC_Base_R_Mid1
									{
										OFFSET -11.380081 -1.865469 -0.234695
										CHANNELS 3 Xrotation Yrotation Zrotation
										JOINT CC_Base_R_Mid2
										{
											OFFSET -4.207092 -0.119065 0.033829
											CHANNELS 3 Xrotation Yrotation Zrotation
											JOINT CC_Base_R_Mid3
											{
												OFFSET -2.707199 -0.092269 0.031372
												CHANNELS 3 Xrotation Yrotation Zrotation
												End Site
												{
													OFFSET -2.699371 -0.048402 -0.222458
												}
											}
										}
									}
									JOINT CC_Base_R_Ring1
									{
										OFFSET -11.199821 0.477916 -1.123932
										CHANNELS 3 Xrotation Yrotation Zrotation
										JOINT CC_Base_R_Ring2
										{
											OFFSET -3.548981 -0.116987 0.012604
											CHANNELS 3 Xrotation Yrotation Zrotation
											JOINT CC_Base_R_Ring3
											{
												OFFSET -2.486282 -0.087294 0.002426
												CHANNELS 3 Xrotation Yrotation Zrotation
												End Site
												{
													OFFSET -2.478539 0.017891 -0.213837
												}
											}
										}
									}
									JOINT CC_Base_R_Thumb1
									{
										OFFSET -5.101601 -5.060779 -1.317978
										CHANNELS 3 Xrotation Yrotation Zrotation
										JOINT CC_Base_R_Thumb2
										{
											OFFSET -2.022972 -1.980966 0.019958
											CHANNELS 3 Xrotation Yrotation Zrotation
											JOINT CC_Base_R_Thumb3
											{
												OFFSET -3.366974 -1.734020 -0.002975
												CHANNELS 3 Xrotation Yrotation Zrotation
												End Site
												{
													OFFSET -3.295723 -1.865891 0.004898
												}
											}
										}
									}
									JOINT CC_Base_R_Index1
									{
										OFFSET -11.272018 -4.721709 0.078278
										CHANNELS 3 Xrotation Yrotation Zrotation
										JOINT CC_Base_R_Index2
										{
											OFFSET -3.081085 -0.102337 0.039734
											CHANNELS 3 Xrotation Yrotation Zrotation
											JOINT CC_Base_R_Index3
											{
												OFFSET -2.603897 -0.076826 0.040741
												CHANNELS 3 Xrotation Yrotation Zrotation
												End Site
												{
													OFFSET -2.590599 -0.039103 -0.274048
												}
											}
										}
									}
									JOINT CC_Base_R_Pinky1
									{
										OFFSET -10.414719 2.497349 -2.116714
										CHANNELS 3 Xrotation Yrotation Zrotation
										JOINT CC_Base_R_Pinky2
										{
											OFFSET -2.772430 -0.083082 -0.000153
											CHANNELS 3 Xrotation Yrotation Zrotation
											JOINT CC_Base_R_Pinky3
											{
												OFFSET -2.170349 -0.100748 -0.002747
												CHANNELS 3 Xrotation Yrotation Zrotation
												End Site
												{
													OFFSET -2.150795 -0.021683 -0.306870
												}
											}
										}
									}
								}
							}
						}
					}
					JOINT CC_Base_R_RibsTwist
					{
						OFFSET -10.856568 -8.884927 8.713364
						CHANNELS 3 Xrotation Yrotation Zrotation
						JOINT CC_Base_R_Breast
						{
							OFFSET 0.000867 -3.000035 -0.000153
							CHANNELS 3 Xrotation Yrotation Zrotation
							End Site
							{
								OFFSET -0.000044 -3.000034 -0.000320
							}
						}
					}
					JOINT CC_Base_L_RibsTwist
					{
						OFFSET 10.835660 -8.887159 8.684448
						CHANNELS 3 Xrotation Yrotation Zrotation
						JOINT CC_Base_L_Breast
						{
							OFFSET -0.001493 -3.000003 -0.000214
							CHANNELS 3 Xrotation Yrotation Zrotation
							End Site
							{
								OFFSET -0.000053 -3.000003 -0.000320
							}
						}
					}
				}
			}
		}
	}
}
MOTION
Frames: 2
Frame Time: 0.016667
-1.430042 -156.318832 0.000000 -0.000000 0.000000 3.434558 -7.228009 -0.713239 0.000051 -0.000011 -0.000000 0.000000 0.044123 1.136311 7.352298 17.540037 1.882668 -0.005084 -10.480926 -3.185622 0.516247 -0.000000 0.000001 0.000001 -2.903960 -0.315476 -0.404984 -0.000021 0.000001 0.000000 -0.000008 -0.000002 -0.000001 -0.000001 -0.000003 0.000002 0.000012 -0.000002 0.000003 -0.000009 0.000001 -0.000002 -0.010008 0.007671 -0.394762 -0.018575 0.014303 -0.733119 -8.797538 -0.680131 -0.387889 -0.090843 -0.035497 -3.681729 0.087979 0.041198 3.681680 -18.274940 4.537458 -2.649695 -0.026627 0.011196 1.080451 0.026409 -0.011696 -1.080446 70.521894 -0.348436 1.802581 -12.989348 -2.382462 -0.680787 -0.404332 0.873796 1.157460 -0.000006 -0.000000 0.000002 -0.000003 0.000000 -0.000000 -0.000014 -0.000004 0.000001 -0.000010 0.000000 0.000003 -0.000005 -0.000004 0.000001 -0.000014 0.000002 -0.000002 -35.255087 -0.340434 -1.032375 0.009218 0.006997 -0.359794 0.045642 0.034207 -1.757631 3.147346 -0.896002 -0.951317 6.303994 1.444762 -1.270438 6.304350 1.460969 -1.267798 -3.210197 0.568081 0.309527 -3.210248 0.568081 0.309529 -3.709189 -3.051815 0.009212 0.000016 0.000007 -0.000015 0.000002 -0.001155 0.001159 0.000019 0.000014 -0.000017 0.000002 -0.000013 0.000006 -0.000008 0.000006 -0.000003 0.000021 0.000011 -0.000014 -0.011331 -0.002286 0.011349 -0.011325 -0.002287 0.011344 0.000005 -0.001145 0.001147 0.000014 -0.000001 0.000001 2.117435 18.726405 -8.145141 39.921438 36.131547 -35.863995 -0.286183 0.001376 -20.267063 -0.078556 0.000895 0.001672 -9.763755 0.093038 0.216912 0.106079 0.007111 12.161599 -19.534688 -13.733116 -2.515642 -0.000015 20.298059 0.000073 -0.000125 33.365986 -0.000131 0.000803 13.812122 -0.000314 -3.529915 10.151984 5.067869 0.000343 29.406024 -0.000695 -0.000605 12.998725 -0.000040 -0.000109 25.837619 -0.000216 -0.000195 38.975218 -0.000109 -0.000131 21.119817 -0.000023 -0.000120 30.323451 0.000044 -0.000095 31.029351 -0.000050 -0.000047 19.995252 -0.000162 -0.504336 15.841765 17.022611 -0.472156 -1.625246 6.917445 0.885457 1.111836 4.463985 -14.156330 0.054167 0.622299 14.154993 -0.204657 -0.590137 2.956511 -18.557158 11.067303 33.968679 -54.605604 26.343988 -9.894915 -0.075336 -0.436462 9.894075 0.149183 0.417027 -0.513331 -0.004997 15.756606 0.075732 0.001051 0.001620 -5.659135 -0.072628 -0.124678 0.360005 -0.094344 -9.452209 -10.507729 6.437248 -2.468034 -0.000066 -20.297765 0.000125 -0.000157 -33.365925 -0.000044 -0.000063 -13.811902 0.000072 -0.000061 -25.838044 -0.000071 -0.000226 -38.974118 -0.000133 -0.000094 -21.120366 -0.000052 -0.504352 -15.841927 -17.022440 -0.453553 1.625787 -6.917833 0.888285 -1.116363 -4.464024 -3.529906 -10.151166 -5.067712 0.000392 -29.407482 0.000265 -0.000548 -12.997789 0.000036 -0.000106 -30.323929 0.000097 -0.000181 -31.027955 0.000249 -0.000082 -19.995968 0.000159 0.000008 0.000002 -0.000001 -0.000001 0.000000 -0.000000 0.000012 0.000006 -0.000002 0.000000 -0.000000 0.000000 
-1.392008 -158.332336 0.000000 -0.000000 0.000000 3.634156 -7.321061 -0.565333 0.000060 -0.000003 -0.000000 0.000000 1.373437 0.953086 7.271209 17.507776 1.882508 0.017294 -11.670751 -2.975749 0.348314 0.000000 0.000001 -0.000004 -2.888275 -0.312739 -0.400849 0.000004 0.000002 -0.000002 -0.000001 -0.000002 -0.000000 0.000001 0.000002 -0.000001 0.000011 0.000000 -0.000000 -0.000005 0.000000 0.000001 -0.010552 0.008094 -0.416367 -0.014576 0.011200 -0.575088 -8.781684 -0.680264 -0.409588 -0.090198 -0.035271 -3.656053 0.087370 0.040893 3.656006 -20.143524 4.358508 -2.494995 -0.024236 0.010213 0.983660 0.024071 -0.010628 -0.983655 68.000612 -0.446951 1.757637 -13.878320 -1.751722 -1.304322 -0.476410 0.869360 1.147099 -0.000011 -0.000000 0.000003 -0.000009 0.000001 0.000001 -0.000024 -0.000004 0.000002 -0.000019 0.000000 0.000004 -0.000003 -0.000000 0.000002 -0.000036 0.000003 -0.000001 -33.995060 -0.300171 -0.965295 0.008811 0.006689 -0.343941 0.040985 0.030810 -1.579812 3.211699 -0.919873 -1.001978 6.433473 1.323090 -1.476790 6.433872 1.338506 -1.475908 -3.144073 0.514888 0.344010 -3.144027 0.514874 0.344006 -3.856337 -3.234953 0.153441 0.000019 0.000021 -0.000029 0.000036 -0.001162 0.001157 0.000014 0.000002 -0.000006 -0.000022 -0.000007 0.000004 0.000012 -0.000003 0.000005 -0.000001 -0.000003 -0.000014 -0.011331 -0.002286 0.011350 -0.011326 -0.002286 0.011345 -0.000002 -0.001157 0.001154 0.000019 -0.000015 -0.000008 2.119480 18.649702 -8.173527 37.994908 35.838248 -35.535859 -0.286228 0.001204 -21.264949 -0.089504 0.001025 0.001902 -9.801035 0.093316 0.217767 0.097566 0.001742 12.760518 -19.664881 -14.024765 -2.716281 -0.000003 20.298383 0.000079 -0.000197 33.364832 -0.000132 0.000827 13.812804 -0.000313 -3.529951 10.151650 5.067677 0.000368 29.406748 -0.000691 -0.000603 12.998294 -0.000030 -0.000072 25.838131 -0.000166 -0.000223 38.974323 -0.000116 -0.000013 21.120256 -0.000143 -0.000039 30.324086 0.000070 -0.000178 31.027808 -0.000064 -0.000006 19.996089 -0.000128 -0.504241 15.841987 17.022501 -0.472189 -1.625305 6.917418 0.885479 1.111877 4.463986 -13.320709 0.055247 0.585346 13.319517 -0.188572 -0.556848 2.949404 -18.467126 11.080638 34.509234 -55.034533 26.148645 -10.138164 -0.076228 -0.447324 10.137284 0.153746 0.426929 -0.513291 -0.005135 14.449019 0.091501 0.001274 0.001943 -5.537057 -0.071192 -0.121902 0.373671 -0.092000 -8.667372 -10.216168 6.025242 -2.803088 -0.000022 -20.298303 0.000065 -0.000204 -33.364566 -0.000034 0.000002 -13.812756 0.000125 -0.000112 -25.838307 0.000144 -0.000262 -38.973900 -0.000180 -0.000024 -21.120376 0.000077 -0.504343 -15.841953 -17.022291 -0.453551 1.625790 -6.917728 0.888273 -1.116358 -4.463956 -3.529887 -10.151650 -5.067896 0.000366 -29.406498 0.000289 -0.000539 -12.998378 0.000041 -0.000074 -30.323554 -0.000043 -0.000127 -31.029191 0.000259 -0.000213 -19.995254 -0.000028 0.000008 0.000002 -0.000001 -0.000001 0.000000 -0.000000 -0.000002 0.000006 -0.000001 0.000000 0.000000 -0.000000 
